<svg xmlns="http://www.w3.org/2000/svg" width="234.43" height="204.95" viewBox="0 0 234.43 204.95">
  <defs>
    <style>
      .a {
        fill: #002831;
      }
    </style>
  </defs>
  <title>Asset 2</title>
  <g>
    <path class="a" d="M16.72,127.62c7-.62,13.59-4.53,15.43-11.6.61-2.35-3-3.35-3.64-1-1.76,6.75-9.71,10-16.2,8.7-7.72-1.5-9.27-11.35-8-17.77,1.8-9.53,8.61-17.55,18.37-19.74,8.65-1.94,17,.49,25.38,2.34s17.17,2.34,25.42.09C88.79,84.44,97.67,69,92.15,53.49,88.61,43.49,81.66,40.15,73,39.66a24.09,24.09,0,0,0,6.81-5.56c6-7.23,3.27-16.71-4.14-21.67-10-6.68-23.19-2.93-33.91-.41-8.33,2-24.25,5.91-25.63,16.4a10.59,10.59,0,0,0,5.66,10.53c4.19,2.12,8.59.65,12-2.23,1.85-1.58-.83-4.24-2.67-2.67-3.77,3.23-9.56,2.63-11-2.71-1.57-5.83,5.4-9.51,9.74-11.53,5.14-2.39,10.73-3.7,16.24-4.9,5.68-1.24,11.5-2.67,17.35-2.42,5,.22,10.14,2,13.43,5.93a10.15,10.15,0,0,1-.38,13.78c-4.44,4.87-11,7.08-17.56,8.5-2.52.42-5,.9-7.33,1.37q-.95-11.13-1.82-22.28c-.19-2.4-4-2.42-3.77,0,1.63,20.27,3.38,42,5.8,62.24.29,2.38,4.06,2.41,3.77,0-1.39-11.56-2.65-24.67-3.66-36.26a2.09,2.09,0,0,0,.49,0c2.66-.46,5.46-1,8.25-1.61,5.3-.91,10.74-1.63,16-.52,7.34,1.56,13.32,9.83,13.35,18.83,0,9.88-5.25,18-14.39,21.55s-19.41,2.72-28.67.4c-12.64-3.18-29-4.9-39,5.62C1.5,96.76-2,108.42,1.18,117.34c2.48,7,8.15,10.94,15.54,10.28"/>
    <path class="a" d="M116.29,55.38c8.75-3.83,12-13.89,9.27-22.58-2.51-8.06-8.94-13.55-17.53-11.67a2,2,0,0,0-.47.1,2,2,0,0,0-.45.17c-9,3.45-15.83,13.37-12.64,23.16,2.88,8.82,13,14.69,21.81,10.82m-7.73-30.51c6.61-1.64,11.21,2.51,13.23,8.55,2.19,6.56.59,14-5.61,17.78-6.88,4.22-15.67-.39-18.07-7.64-2.62-7.9,3.1-16.07,10.45-18.69"/>
    <path class="a" d="M20.89,74c13.64-5.91,8.93-30.63-6.51-27.46a1.8,1.8,0,0,0-.48.1,1.84,1.84,0,0,0-.45.18c-7,2.79-12.35,10.3-10.15,18C5.37,72.15,13.65,77.15,20.89,74m-6-23.92c11.19-2.68,14.09,15,5.73,20.07C15.38,73.32,9,70,7,64.61c-2.26-6.1,2.17-12.44,7.85-14.51"/>
    <path class="a" d="M169.53,52.62c8.73-3.82,11.87-13.79,9.37-22.48-2.38-8.29-8.82-12.77-17.26-11.77a3.37,3.37,0,0,0-1.59.39c-8.86,3.56-15.5,13.37-12.34,23,2.88,8.82,13,14.69,21.81,10.82m-7.73-30.51c14.78-2.36,19.06,19.32,7.62,26.33-6.88,4.22-15.67-.39-18.07-7.64-2.62-7.9,3.1-16.07,10.45-18.69"/>
    <path class="a" d="M140.19,129.77c-2.38-8.29-8.82-12.77-17.26-11.77a1.8,1.8,0,0,0-.84.1,1.77,1.77,0,0,0-.74.28c-8.86,3.56-15.5,13.37-12.34,23,2.88,8.82,13,14.69,21.81,10.82s11.87-13.79,9.37-22.48m-9.48,18.3c-6.88,4.22-15.67-.39-18.07-7.64-2.62-7.9,3.1-16.07,10.45-18.69,14.78-2.36,19.06,19.32,7.62,26.33"/>
    <path class="a" d="M115.83,8.23Q122.95,6.89,130,5.44c1.08,21.35,3.83,41.26,4.86,62.62,0,.07,0,.13,0,.19l-5.39,1c-2.38.44-1.37,4.07,1,3.64,24.3-4.47,45.77-8.26,69.93-13.46a2,2,0,0,0,.47-.1,1.88,1.88,0,0,0,.56-.22c11-4.36,13.42-23,1.34-27.85-5-2-11.48-.26-14,4.67A9.79,9.79,0,0,0,193.33,49c2.2,1,4.12-2.26,1.9-3.26a6,6,0,0,1-2.69-8.73c2.41-3.58,7.93-3.6,11-1,6.19,5.26,4.09,17-3.6,19.64-21.29,4.59-39.89,7.83-61.3,11.85-1.06-21.44-3.82-41.44-4.87-62.88l4.63-1c2.37-.51,1.37-4.15-1-3.64-7.5,1.63-15,3.12-22.57,4.55-2.38.45-1.37,4.08,1,3.64"/>
    <path class="a" d="M68.68,160.83c-3.81.68-7.64,1.36-11.43,2.14-2.78-19.22-5.57-39.34-8.35-58.56,2.93-.52,5.86-1.05,8.79-1.61,2.38-.46,1.37-4.09-1-3.64-7.13,1.36-14.28,2.58-21.42,3.83-2.39.42-1.37,4.05,1,3.64l8.95-1.57c2.79,19.26,5.58,39.41,8.37,58.67-3.53.74-7.06,1.36-10.61,2-2.38.45-1.42,4.09,1,3.65,8.58-1.6,17.12-3.4,25.71-4.93,2.39-.43,1.42-4.07-1-3.65"/>
    <path class="a" d="M98.39,125.48c16.23-3.45,26.36-20.74,24.38-36.94-1.06-8.65-8.21-18.07-17.94-14.31-8.58,3.31-10,14.55-3.05,20.29,1.86,1.53,4.55-1.13,2.67-2.67-3.15-2.58-4.61-7-2.38-10.72a8.18,8.18,0,0,1,10.75-2.94c7.27,3.84,7.17,14.16,5.46,21-2.72,11-8.9,19.69-20,22.41-.24-3.23-1-6.38-3.16-8.78-2.71-3-7.48-4.37-10.84-1.62s-3,8-.6,11.14c2.65,3.53,6.86,4.48,10.93,3.92.14,9.14,1.15,24.54-7.25,30.18-4.22,2.83-9.34,1.78-11.31-2.95-1.54-3.7-2.6-8.89-3.47-12.78-2-9.08-3-18.35-4.42-27.54-.36-2.39-4-1.38-3.64,1,1.71,11.39,3.09,22.74,6,33.91,1,3.94,2.39,9.83,6.09,12.16,3.52,2.22,8.24,1.92,11.82,0,10.34-5.64,10-22.1,10-32.2,0-.83,0-1.69,0-2.56m-9.85-3.8c-2-1.2-3.49-3.61-2.73-6,1.23-3.87,5.76-1.78,7.26.68a12.56,12.56,0,0,1,1.47,6.13,8.14,8.14,0,0,1-6-.83"/>
    <path class="a" d="M172.57,111c-1-7.59-1.53-16.09-4.41-23.27-1.06-2.64-2.6-5-5.5-5.78-3.87-1-8,.92-10.6,3.77-4.66,5.12-6.22,14.08-6.61,20.94C142.29,100,137,93.27,130,99.12c-1.87,1.56.81,4.21,2.67,2.67,7-5.83,12,12.84,13.37,18.82.82,6.42,2.18,12.82,3.28,19.19.36,2.45.72,4.9,1.11,7.34.34,2.08,4,1.61,3.7-.5l-.07-.5v0c-.27-2.07-.59-4.13-.93-6.19-.93-6.47-1.79-13-3.22-19.35a91,91,0,0,1-.8-10.79,47.77,47.77,0,0,1,2.19-14.08,23.5,23.5,0,0,1,2.56-6.16c1.59-2.43,6-5.7,8.94-3.4,2.74,2.12,3.27,7.77,3.82,10.91.78,4.45,1.43,8.92,2.05,13.4,1.47,10.63,3,21.61,5.39,32.08.53,2.37,4.17,1.37,3.64-1-2.25-10-3.8-20.41-5.18-30.51"/>
    <path class="a" d="M222.07,106.35c-4.81-6.34-14.26-8.07-20.24-2.24a10.31,10.31,0,0,0,2.83,17c2.18,1,4.1-2.22,1.9-3.26-5.8-2.73-5.54-9.57,0-12.54,6.09-3.29,12.88,1.38,14.59,7.44,4,14.25-13.24,25.45-25.28,19.94-10.77-4.93-13.32-19.19-13.42-29.83a42.74,42.74,0,0,1,1-9.77c9.13-.08,19.88-1.32,27.86-5.76,7.09-3.94,3.39-12.21-2.7-14.85C202,69.67,194.38,71.76,189,76c-6.68,5.27-9.47,13.67-10.17,21.89-1.3,15.37,3.34,37.28,21.45,40a22,22,0,0,0,20.63-8.44c4.87-6.36,6.18-16.48,1.17-23.1M199.21,75.26a12.72,12.72,0,0,1,9.29,1.43c1.94,1.28,4,4.13,2.26,6.42-1.09,1.45-4,2.09-5.63,2.63a71.28,71.28,0,0,1-20.64,3.56c2.36-6.79,6.93-12.48,14.72-14"/>
    <path class="a" d="M24.79,194.7a3.82,3.82,0,0,0-.82-1.33A4,4,0,0,0,20,192l-4.11.8,2.36,12.12,4-.78a4,4,0,0,0,2.11-1,4.24,4.24,0,0,0,1.16-1.69,6.78,6.78,0,0,0,.21-.69,3.12,3.12,0,0,0,.06-.74,18.62,18.62,0,0,0-.39-2.75,26,26,0,0,0-.59-2.57m-1,6.28a2.44,2.44,0,0,1-2,1.48l-2.13.42L18,194.21l2.13-.41a2.38,2.38,0,0,1,2.3.61,2.17,2.17,0,0,1,.67,1q.21.67.51,2.25a22.4,22.4,0,0,1,.36,2.23,2.1,2.1,0,0,1-.19,1.07"/>
    <path class="a" d="M39.39,191.6a2.89,2.89,0,0,0-.63-1.08,4.1,4.1,0,0,0-4.1-1.46,4,4,0,0,0-2.18,1.13A4.21,4.21,0,0,0,31.41,192a3.48,3.48,0,0,0-.17,1.23,33.54,33.54,0,0,0,1.1,5.64,3.55,3.55,0,0,0,.29.62l.34.48a4.3,4.3,0,0,0,4.1,1.46,4.18,4.18,0,0,0,2.2-1.15,4,4,0,0,0,1-1.74,2.93,2.93,0,0,0,.18-1.25,38.37,38.37,0,0,0-1.1-5.64m-1,6.72a2,2,0,0,1-.59.75,2.19,2.19,0,0,1-1.05.49,2.08,2.08,0,0,1-1.13-.06,2.14,2.14,0,0,1-.86-.46,2.08,2.08,0,0,1-.66-.93,14.89,14.89,0,0,1-.6-2.4,15.25,15.25,0,0,1-.35-2.47,2.07,2.07,0,0,1,.26-1.1,2.31,2.31,0,0,1,.62-.77,2.44,2.44,0,0,1,1-.47,2.57,2.57,0,0,1,1.16,0,2.61,2.61,0,0,1,1.5,1.4,16.21,16.21,0,0,1,.6,2.42,15.86,15.86,0,0,1,.35,2.45,2.22,2.22,0,0,1-.28,1.12"/>
    <path class="a" d="M51.35,196.7a2.08,2.08,0,0,1-1.14-.06,2.15,2.15,0,0,1-.86-.46,2.09,2.09,0,0,1-.66-.94,14.78,14.78,0,0,1-.6-2.4,15.27,15.27,0,0,1-.35-2.47,2.07,2.07,0,0,1,.26-1.1,2.31,2.31,0,0,1,.62-.77,2.46,2.46,0,0,1,1-.47,2.32,2.32,0,0,1,1.55.23,2.74,2.74,0,0,1,1,1.1l1.89-.37a4.7,4.7,0,0,0-1.85-2.28,4.31,4.31,0,0,0-5.15.63,4.19,4.19,0,0,0-1.08,1.76,3.47,3.47,0,0,0-.17,1.23A33.82,33.82,0,0,0,47,196a3.54,3.54,0,0,0,.29.62l.33.48a4.3,4.3,0,0,0,4.1,1.46,4.18,4.18,0,0,0,2.47-1.41,4.65,4.65,0,0,0,1-2.88l-1.88.37a2.44,2.44,0,0,1-1.92,2.1"/>
    <polygon class="a" points="63.05 194.42 62.35 190.85 67.23 189.9 66.92 188.28 62.03 189.23 61.36 185.76 67.08 184.64 66.74 182.91 59.24 184.38 61.6 196.5 69.11 195.04 68.77 193.31 63.05 194.42"/>
    <path class="a" d="M89.37,185.18a3.68,3.68,0,0,0-2.68-.75l-1.36.07a2.27,2.27,0,0,1-1.38-.35,1.38,1.38,0,0,1-.58-.87,1.63,1.63,0,0,1,.33-1.43,2.21,2.21,0,0,1,1.29-.69,5.36,5.36,0,0,1,3.09.37l.7-1.7a6.58,6.58,0,0,0-4-.51,4,4,0,0,0-2.62,1.53,3.44,3.44,0,0,0-.52,2.76,3.34,3.34,0,0,0,1.25,2.09,3.86,3.86,0,0,0,2.53.71l1.6-.08q1.6,0,1.85,1.33.29,1.66-2,2.14a5.16,5.16,0,0,1-3.57-.56l-.9,1.61a6.67,6.67,0,0,0,4.81.78q4-.84,3.43-4.33a3.57,3.57,0,0,0-1.22-2.11"/>
    <rect class="a" x="96.51" y="177.05" width="1.81" height="12.35" transform="translate(-33.26 22.03) rotate(-11.03)"/>
    <polygon class="a" points="112.33 174.03 110.57 182.57 105.66 175.33 103.98 175.65 106.35 187.78 108.13 187.43 106.65 179.87 106.68 179.86 110.28 185.21 111.76 184.92 113.08 178.62 113.12 178.61 114.59 186.17 116.37 185.82 114.01 173.7 112.33 174.03"/>
    <path class="a" d="M129.36,172.8a3,3,0,0,0-1.13-1,3.61,3.61,0,0,0-1.45-.46,6.74,6.74,0,0,0-1.36.13l-4.26.83,2.36,12.12,1.78-.35-.92-4.73,2.71-.53a3.49,3.49,0,0,0,2.52-1.73,3.82,3.82,0,0,0,.44-2.63,4,4,0,0,0-.7-1.66m-1.3,3.38a1.89,1.89,0,0,1-1.37.93l-2.64.51-.77-3.93,2.57-.5a2.22,2.22,0,0,1,1.34.09,1.55,1.55,0,0,1,.68.48,2.49,2.49,0,0,1,.39,1,2.14,2.14,0,0,1-.22,1.43"/>
    <polygon class="a" points="139.32 179.56 137.29 169.16 135.51 169.51 137.88 181.63 145.38 180.17 145.04 178.44 139.32 179.56"/>
    <rect class="a" x="150.42" y="166.54" width="1.81" height="12.35" transform="translate(-30.26 32.15) rotate(-11.03)"/>
    <path class="a" d="M163.71,174.8a2.08,2.08,0,0,1-1.14-.06,2.14,2.14,0,0,1-.86-.46,2.09,2.09,0,0,1-.66-.94,14.93,14.93,0,0,1-.6-2.4,15.25,15.25,0,0,1-.35-2.47,2.07,2.07,0,0,1,.26-1.1,2.33,2.33,0,0,1,.62-.77,2.47,2.47,0,0,1,1-.47,2.33,2.33,0,0,1,1.55.23,2.74,2.74,0,0,1,1,1.1l1.89-.37a4.69,4.69,0,0,0-1.85-2.28,4.31,4.31,0,0,0-5.15.63,4.19,4.19,0,0,0-1.08,1.76,3.47,3.47,0,0,0-.17,1.23,33.51,33.51,0,0,0,1.1,5.64,3.63,3.63,0,0,0,.29.62l.34.48a4.3,4.3,0,0,0,4.1,1.46,4.19,4.19,0,0,0,2.47-1.41,4.65,4.65,0,0,0,1-2.88l-1.89.37a2.44,2.44,0,0,1-1.92,2.1"/>
    <rect class="a" x="172.79" y="162.18" width="1.81" height="12.35" transform="translate(-29 36.33) rotate(-11.03)"/>
    <path class="a" d="M189.16,162.66a3.83,3.83,0,0,0-.82-1.33,4,4,0,0,0-4-1.35l-4.11.8,2.36,12.12,4-.78a4,4,0,0,0,2.11-1,4.24,4.24,0,0,0,1.16-1.69,6.78,6.78,0,0,0,.21-.69,3.19,3.19,0,0,0,.06-.74,18.62,18.62,0,0,0-.39-2.75,26,26,0,0,0-.59-2.57m-1,6.28a2.44,2.44,0,0,1-2,1.48l-2.13.42-1.69-8.66,2.13-.42a2.38,2.38,0,0,1,2.3.62,2.18,2.18,0,0,1,.68,1q.21.67.51,2.25a21.83,21.83,0,0,1,.36,2.23,2.1,2.1,0,0,1-.18,1.07"/>
    <path class="a" d="M198,157.33l-1.9,13,1.88-.37.37-2.89,4.45-.87,1.44,2.53,1.88-.37L199.47,157Zm.55,8,.67-5.63h0l2.73,5Z"/>
    <path class="a" d="M218.48,156.94a3.83,3.83,0,0,0-.82-1.33,4,4,0,0,0-4-1.35l-4.11.8,2.36,12.12,4-.78a4,4,0,0,0,2.11-1,4.23,4.23,0,0,0,1.16-1.69,6.49,6.49,0,0,0,.21-.69,3.19,3.19,0,0,0,.06-.74,18.62,18.62,0,0,0-.39-2.75,26,26,0,0,0-.59-2.57m-1,6.28a2.44,2.44,0,0,1-2,1.48l-2.13.42-1.69-8.66,2.13-.41a2.38,2.38,0,0,1,2.3.61,2.18,2.18,0,0,1,.68,1q.21.67.51,2.25a22.17,22.17,0,0,1,.36,2.23,2.1,2.1,0,0,1-.18,1.07"/>
    <polygon class="a" points="234.1 161.08 228.37 162.2 227.68 158.63 232.56 157.68 232.25 156.05 227.36 157 226.68 153.53 232.41 152.41 232.07 150.69 224.57 152.15 226.93 164.27 234.43 162.81 234.1 161.08"/>
    <path class="a" d="M24.05,146.38a9.56,9.56,0,0,0-7.15-7.07c-3.94-1-6.53.17-9.68,2.22-1.62,1.06-.1,3.66,1.53,2.6l1.34-.86,2.19,12.39s0,.09,0,.13c-.53,0-1.08-.09-1.66-.14-1.93-.19-1.91,2.83,0,3,4.12.4,6.93,0,10.11-2.84a9.76,9.76,0,0,0,3.27-9.45m-6.67,8.28a6.55,6.55,0,0,1-2.26,1,1.56,1.56,0,0,0,.06-.79l-2.26-12.76A7.43,7.43,0,0,1,14.7,142c3,.22,5.82,2,6.45,5.18s-1.26,5.8-3.77,7.47"/>
    <path class="a" d="M46,152.53c1.89-.58,1.11-3.76-.69-3-4,1.72-4.32-2.64-4.89-5.44a54.23,54.23,0,0,1-1.11-8.47c-.08-2-3.1-2-3.07,0-6.79-1-11.85,4.93-10.69,11.84.52,3.1,2.17,6.34,5.44,7.16s6.47-.81,8.76-3c1.73,2.06,3.92,1.68,6.25,1m-13.49-.81c-2.71-.21-3.73-2.94-4-5.28-.57-4.9,3-8.77,7.89-7.68a39.31,39.31,0,0,0,1.89,9.89c-1.39,1.58-3.53,3.25-5.78,3.08"/>
  </g>
</svg>
