<?xml version="1.0" encoding="UTF-8"?>
<svg width="21px" height="21px" viewBox="0 0 21 21" version="1.1" xmlns="http://www.w3.org/2000/svg" xmlns:xlink="http://www.w3.org/1999/xlink">
    <!-- Generator: Sketch 43.2 (39069) - http://www.bohemiancoding.com/sketch -->
    <title>Combined Shape</title>
    <desc>Created with Sketch.</desc>
    <defs></defs>
    <g id="Desktop" stroke="none" stroke-width="1" fill="none" fill-rule="evenodd">
        <g id="HOME" transform="translate(-709.000000, -546.000000)" fill="#002831">
            <path d="M709,547.994561 C709,546.892996 709.886555,546 711.005919,546 L713.994081,546 C715.101919,546 716,546.902344 716,547.994561 L716,565.005439 C716,566.107004 715.113445,567 713.994081,567 L711.005919,567 C709.898081,567 709,566.097656 709,565.005439 L709,547.994561 Z M723,547.994561 C723,546.892996 723.886555,546 725.005919,546 L727.994081,546 C729.101919,546 730,546.902344 730,547.994561 L730,565.005439 C730,566.107004 729.113445,567 727.994081,567 L725.005919,567 C723.898081,567 723,566.097656 723,565.005439 L723,547.994561 Z" id="Combined-Shape"></path>
        </g>
    </g>
</svg>