<svg xmlns="http://www.w3.org/2000/svg" width="57.73" height="79.41" viewBox="0 0 57.73 79.41">
  <defs>
    <style>
      .a {
        fill: #002831;
      }
    </style>
  </defs>
  <title>simbolo</title>
  <path class="a" d="M37.59,28.76A16.08,16.08,0,0,0,42,13C40,5.61,32.73.68,25.36.07,17-.63,8.79,4.15,4,10.84c-4.62,6.45-6.14,16.1.46,21.86,5.31,4.64,16,2.7,17.42-5,.29-1.57-2.12-2.24-2.4-.66-.67,3.68-4.76,5.8-8.28,5.77-4.39,0-7.66-4-8.53-8C.78,16.16,8.41,7.52,15.83,4.24S32.68,2.47,37.59,9.36C42.06,15.64,40.3,25,33.43,28.71A1.26,1.26,0,0,0,34.06,31,21.07,21.07,0,0,1,55.22,50.46c.84,11-6.08,20.81-16.21,24.68-9.18,3.5-20.7,1.82-27.31-5.87-7.47-8.69-5-22.05,5.42-26.94a24.45,24.45,0,0,1,8.79-2.23L27.49,51h0c-1.86.31-3.72.64-5.57,1-1.57.3-.91,2.71.66,2.4,4.57-.89,9.18-1.56,13.76-2.4,1.57-.29.91-2.69-.66-2.4-1.92.36-3.85.68-5.78,1a1.41,1.41,0,0,0,0-.27L28.41,40.12a13.26,13.26,0,0,1,7.88,3c2.36,2.05,4.14,5.43,3.38,8.62s-4.1,5.89-7.55,5.24c-1.57-.3-2.24,2.1-.66,2.4a9.28,9.28,0,0,0,10.8-8.11c.68-6.11-4.28-11.34-9.83-13A20.83,20.83,0,0,0,28,37.59L25.41,19.4c1.52-.2,3-.41,4.53-.69s.91-2.69-.66-2.4c-3.81.7-7.67,1-11.49,1.65-1.58.27-.91,2.67.66,2.4s3-.45,4.5-.64l2.58,17.85C15.13,38,5.13,45.73,4.83,56.7,4.45,70.06,16.43,79.17,29,79.41c13,.24,25.57-8.75,28.22-21.7C60,44.12,51.12,30.59,37.59,28.76"/>
</svg>
