<svg xmlns="http://www.w3.org/2000/svg" width="50" height="10" viewBox="0 0 50 10" fill="#002831">
    <path d="M25,1a4,4,0,1,1-4,4,4,4,0,0,1,4-4m0-1a5,5,0,1,0,5,5,5,5,0,0,0-5-5Z"/>
    <circle id="marcador-1" cx="5" cy="5" r="5"/>
    <path d="M5,1A4,4,0,1,1,1,5,4,4,0,0,1,5,1M5,0a5,5,0,1,0,5,5A5,5,0,0,0,5,0Z"/>
    <circle id="marcador-2" cx="25" cy="5" r="5"/>
    <path d="M45,1a4,4,0,1,1-4,4,4,4,0,0,1,4-4m0-1a5,5,0,1,0,5,5,5,5,0,0,0-5-5Z"/>
    <circle id="marcador-3" cx="45" cy="5" r="5"/>
</svg>
