<svg xmlns="http://www.w3.org/2000/svg" width="53.64" height="79.95" viewBox="0 0 53.64 79.95">
  <defs>
    <style>
      .a {
        fill: #002831;
      }
    </style>
  </defs>
  <title>simbolo</title>
  <path class="a" d="M37.78,31.15A16.08,16.08,0,0,0,45,16.43C44.4,8.83,38.11,2.66,31,.71c-8.14-2.22-17,1-23,6.7C2.28,12.91-1,22.12,4.47,29c4.38,5.53,15.26,5.58,18-1.7.57-1.49-1.67-2.59-2.24-1.09-1.33,3.5-5.73,4.83-9.19,4.16-4.31-.83-6.81-5.29-6.93-9.42C3.88,12.06,13,4.95,20.85,3.08s16.89,1.33,20.46,9c3.25,7-.18,15.85-7.62,18.27a1.26,1.26,0,0,0,.19,2.4,21.07,21.07,0,0,1,17.27,23C50,66.64,41.38,75.06,30.72,77,21.05,78.78,10,75,4.93,66.26-.83,56.35,4,43.66,15.17,40.77a24.45,24.45,0,0,1,9.05-.59l-.43,11h0c-1.88,0-3.77-.05-5.65,0-1.6,0-1.38,2.5.21,2.48,4.66,0,9.31.14,14,.14,1.6,0,1.38-2.48-.21-2.48-2,0-3.91,0-5.87-.07a1.41,1.41,0,0,0,0-.26l.41-10.34a13.26,13.26,0,0,1,7.2,4.42c1.94,2.45,3.08,6.09,1.75,9.09s-5.1,5-8.38,3.78c-1.49-.58-2.58,1.66-1.09,2.24a9.28,9.28,0,0,0,12.1-6c1.78-5.88-2.14-11.93-7.31-14.53a20.83,20.83,0,0,0-4.17-1.55l.72-18.37c1.53.08,3.05.14,4.58.15s1.38-2.48-.21-2.48c-3.87,0-7.73-.41-11.6-.47-1.6,0-1.38,2.46.21,2.48s3,.1,4.54.19l-.71,18C14,36.18,2.77,41.92.47,52.65c-2.8,13.07,7.31,24.22,19.64,26.74,12.73,2.61,26.73-3.94,31.7-16.2,5.21-12.85-1.06-27.78-14-32"/>
</svg>
